<?xml version="1.0" standalone="no"?>
<!DOCTYPE svg PUBLIC "-//W3C//DTD SVG 20010904//EN"
 "http://www.w3.org/TR/2001/REC-SVG-20010904/DTD/svg10.dtd">
<svg version="1.0" xmlns="http://www.w3.org/2000/svg"
 width="360.000000pt" height="360.000000pt" viewBox="0 0 360.000000 360.000000"
 preserveAspectRatio="xMidYMid meet">
<metadata>
Created by potrace 1.14, written by Peter Selinger 2001-2017
</metadata>
<g transform="translate(0.000000,360.000000) scale(0.100000,-0.100000)"
fill="#000000" stroke="none">
<path d="M2190 3090 c0 -5 -3 -9 -7 -8 -5 2 -19 -5 -32 -14 -20 -14 -25 -28
-28 -71 -2 -47 1 -57 28 -86 27 -30 29 -35 14 -50 -8 -10 -12 -21 -9 -24 4 -4
2 -12 -3 -19 -6 -7 -13 -26 -16 -43 -10 -57 -17 -79 -27 -85 -5 -3 -8 -16 -5
-28 2 -12 0 -22 -6 -22 -5 0 -9 -8 -9 -17 -1 -33 -23 -48 -72 -50 -27 0 -48 4
-48 9 0 5 -53 7 -132 4 -166 -7 -207 -11 -238 -23 -14 -6 -31 -8 -37 -6 -7 3
-13 0 -13 -6 0 -6 -10 -11 -23 -11 -13 0 -27 -3 -31 -7 -3 -4 -16 -8 -28 -10
-12 -2 -26 -9 -30 -16 -4 -6 -8 -8 -8 -4 0 4 -24 -5 -54 -22 -30 -16 -57 -27
-60 -24 -3 4 -6 -1 -6 -11 0 -9 -4 -15 -9 -12 -12 8 -71 -23 -78 -40 -3 -8 -9
-11 -15 -8 -5 3 -28 -15 -52 -40 -23 -25 -48 -46 -56 -46 -8 0 -26 -17 -40
-37 -14 -19 -44 -55 -67 -79 -24 -24 -43 -49 -43 -55 0 -7 -8 -18 -17 -25 -10
-7 -18 -18 -18 -26 0 -10 -29 -13 -132 -14 -72 0 -138 -5 -145 -10 -7 -6 -39
-9 -70 -8 -32 1 -58 -2 -58 -7 0 -5 -22 -9 -49 -9 -28 0 -53 -5 -57 -11 -3 -6
-19 -9 -35 -7 -17 3 -30 -1 -33 -8 -3 -7 -14 -11 -26 -9 -11 2 -20 0 -20 -4 0
-4 -19 -14 -42 -21 -24 -8 -47 -20 -51 -27 -4 -7 -14 -13 -21 -13 -7 0 -21 -9
-31 -20 -10 -11 -21 -18 -25 -15 -15 9 -81 -76 -79 -101 0 -4 -4 -10 -10 -13
-6 -4 -12 -17 -14 -29 -2 -12 -6 -25 -10 -28 -12 -12 -8 -126 3 -119 7 4 9 -6
7 -29 -2 -20 -1 -36 2 -36 3 0 13 -14 20 -32 8 -18 25 -44 39 -59 13 -15 25
-31 25 -36 3 -12 147 -153 157 -153 5 0 20 -11 33 -24 13 -12 27 -25 33 -27
30 -13 84 -52 84 -61 0 -5 6 -8 13 -5 6 2 19 -4 27 -13 13 -14 39 -29 60 -35
3 0 25 -12 50 -25 25 -13 47 -25 50 -25 3 0 25 -12 50 -25 93 -49 179 -90 189
-90 6 0 11 -4 11 -10 0 -5 9 -10 20 -10 11 0 35 -9 55 -20 19 -11 39 -19 43
-19 15 2 52 -14 52 -22 0 -5 10 -9 23 -9 13 0 28 -5 35 -12 7 -7 12 -9 12 -5
0 4 12 1 27 -6 16 -7 35 -13 43 -12 8 0 22 -7 30 -16 13 -14 42 -28 73 -35 4
-1 8 -2 10 -3 1 -2 13 -5 27 -7 13 -2 27 -9 31 -15 3 -6 8 -10 10 -9 11 5 59
-14 59 -22 0 -7 4 -7 13 0 8 7 18 6 31 -4 10 -7 23 -11 29 -7 5 3 13 0 17 -7
4 -7 25 -13 46 -15 22 -1 39 -4 39 -5 0 -1 16 -4 35 -7 19 -2 37 -8 40 -12 3
-4 25 -6 50 -6 25 1 50 -2 55 -6 6 -4 32 -9 58 -10 26 -2 47 -6 47 -10 0 -4
12 -7 28 -5 15 1 38 -3 52 -10 14 -6 37 -11 52 -9 15 2 32 -2 37 -9 7 -8 29
-11 60 -9 28 3 52 0 56 -6 3 -6 30 -11 59 -11 28 0 57 -5 64 -12 9 -9 12 -9
12 0 0 7 9 12 20 12 11 0 20 -4 20 -9 0 -4 17 -8 38 -7 20 1 42 -3 48 -9 6 -6
48 -10 93 -9 45 0 84 -3 87 -8 7 -11 274 -11 274 0 0 5 41 8 91 8 59 -1 93 2
96 10 2 6 23 10 49 9 24 -1 47 2 50 6 3 5 18 9 34 9 16 0 32 5 35 10 3 6 17
10 31 10 13 0 24 5 24 11 0 5 5 7 10 4 6 -4 27 3 46 14 20 12 40 19 45 15 5
-3 12 2 15 11 4 9 12 14 19 11 8 -3 16 2 19 11 4 9 9 13 13 9 15 -14 110 95
111 128 0 5 5 12 12 16 6 4 12 27 14 51 1 24 5 49 9 55 3 6 3 14 -1 18 -4 4
-8 23 -8 42 -1 18 -7 41 -14 49 -7 8 -9 15 -6 15 4 0 -1 12 -12 28 -10 15 -22
34 -26 42 -19 42 -39 66 -113 137 -87 84 -136 124 -165 135 -10 4 -18 12 -18
18 0 5 -9 10 -19 10 -10 0 -21 7 -25 15 -3 8 -12 15 -19 15 -8 0 -21 8 -30 18
-9 10 -32 24 -52 32 -19 8 -35 17 -35 20 0 4 -18 15 -40 25 -22 10 -40 21 -40
25 0 4 -8 7 -17 6 -14 -1 -17 9 -16 67 1 37 -3 67 -8 67 -4 0 -8 16 -7 35 1
19 -3 40 -9 47 -6 7 -9 21 -8 31 2 10 -3 21 -11 24 -8 3 -11 9 -8 14 7 12 -18
69 -30 69 -4 0 -6 11 -4 24 3 15 0 27 -8 30 -8 3 -22 23 -31 46 -10 22 -21 40
-26 40 -4 0 -6 4 -3 8 3 5 -4 18 -14 30 -11 12 -20 25 -20 31 0 5 -15 22 -32
38 -18 16 -34 36 -36 43 -5 20 -127 137 -151 145 -11 3 -23 15 -26 26 -4 10
-10 17 -15 14 -4 -2 -19 4 -33 15 -14 11 -28 20 -32 20 -4 0 -16 9 -26 21 -9
11 -20 20 -23 19 -10 -1 -80 33 -87 43 -3 5 -9 8 -13 7 -4 -1 -17 1 -29 5 -12
4 -30 6 -39 5 -10 -1 -18 3 -18 8 0 5 -8 12 -18 14 -13 4 -17 15 -17 44 0 21
4 45 9 52 8 14 13 43 23 140 3 28 9 52 14 52 5 0 9 11 9 24 0 26 23 51 39 42
11 -7 54 31 66 59 12 28 16 75 7 75 -4 0 -13 13 -20 29 -9 19 -18 28 -28 24
-8 -3 -14 0 -14 6 0 6 -16 11 -35 11 -19 0 -35 -4 -35 -10z"/>
</g>
</svg>
